<?xml version="1.0" encoding="iso-8859-1"?>
<svg id="world" width="57" height="57" viewBox="0 0 57 57" fill="none" xmlns="http://www.w3.org/2000/svg">
<g clip-path="url(#clip0)">
<path d="M52.1648 12.6425L51.312 12.9128L46.7707 13.3174L45.4879 15.3659L44.5571 15.0701L40.9429 11.8115L40.4186 10.1169L39.7164 8.3098L37.4448 6.27228L34.765 5.74792L34.7033 6.97443L37.3287 9.53631L38.6133 11.0495L37.1691 11.8043L35.9933 11.4577L34.2316 10.7229L34.2915 9.30226L31.98 8.35153L31.2125 11.6918L28.8829 12.2198L29.1133 14.0831L32.1487 14.6673L32.6731 11.69L35.1787 12.0601L36.3435 12.7423H38.2123L39.4914 15.3042L42.8825 18.7442L42.6339 20.0814L39.8997 19.733L35.1751 22.1189L31.7731 26.1994L31.3304 28.0065H30.1094L27.8342 26.9578L25.6243 28.0065L26.174 30.338L27.1356 29.2294L28.8266 29.1768L28.7087 31.2706L30.1094 31.6806L31.5082 33.2518L33.7925 32.6096L36.4016 33.0214L39.4316 33.8361L40.9447 34.0139L43.5102 36.9259L48.4616 39.838L45.2593 45.956L41.8791 47.5272L40.5964 51.0235L35.7049 54.2894L35.1841 56.1727C47.6887 53.1608 56.991 41.9281 56.991 28.4982C56.9873 22.6324 55.2093 17.173 52.1648 12.6425Z" fill="white"/>
<path d="M31.7713 43.3941L29.6957 39.5458L31.6007 35.576L29.6957 35.0063L27.5565 32.8581L22.8174 31.7949L21.2444 28.5036V30.4577H20.5513L16.4672 24.9203V20.3717L13.4735 15.5037L8.71982 16.351H5.51748L3.90632 15.2951L5.96199 13.6658L3.91177 14.1393C1.4406 18.3595 0 23.2565 0 28.5018C0 44.2378 12.7568 57 28.4946 57C29.7066 57 30.895 56.8929 32.0707 56.7514L31.7731 53.2987C31.7731 53.2987 33.0813 48.1713 33.0813 47.9971C33.0795 47.8211 31.7713 43.3941 31.7713 43.3941Z" fill="white"/>
<path d="M10.5886 9.18974L15.6507 8.48396L17.984 7.20483L20.6094 7.96142L24.8042 7.72918L26.2411 5.4703L28.3367 5.81503L33.426 5.33785L34.8285 3.79202L36.8062 2.47116L39.6039 2.89209L40.6236 2.73787C36.9386 1.00334 32.8382 0 28.4928 0C19.6478 0 11.7389 4.03151 6.51721 10.3618H6.53173L10.5886 9.18974ZM29.6975 2.83403L32.6077 1.23195L34.4765 2.3115L31.7713 4.3708L29.1877 4.63025L28.0247 3.87548L29.6975 2.83403ZM21.0775 3.06809L22.362 3.60332L24.044 3.06809L24.9602 4.65565L21.0775 5.67532L19.2105 4.58308C19.2087 4.58308 21.0357 3.40737 21.0775 3.06809Z" fill="white"/>
</g>
<defs>
<clipPath id="clip0">
<rect width="57" height="57" fill="white"/>
</clipPath>
</defs>
</svg>
